<svg width="30" height="30" viewBox="0 0 30 30" fill="none" xmlns="http://www.w3.org/2000/svg">
<g clip-path="url(#clip0_24_1288)">
<path d="M6.25 16.2499L21.075 16.2499L16.5375 21.6999C16.3253 21.9552 16.2233 22.2843 16.2537 22.6148C16.2842 22.9453 16.4447 23.2502 16.7 23.4624C16.9553 23.6746 17.2844 23.7767 17.6149 23.7462C17.9454 23.7157 18.2503 23.5552 18.4625 23.2999L24.7125 15.7999C24.7545 15.7402 24.7922 15.6776 24.825 15.6124C24.825 15.5499 24.825 15.5124 24.9125 15.4499C24.9692 15.3066 24.9988 15.154 25 14.9999C24.9988 14.8458 24.9692 14.6932 24.9125 14.5499C24.9125 14.4874 24.9125 14.4499 24.825 14.3874C24.7922 14.3222 24.7545 14.2596 24.7125 14.1999L18.4625 6.6999C18.345 6.5588 18.1978 6.44532 18.0314 6.36754C17.8651 6.28977 17.6836 6.2496 17.5 6.2499C17.2079 6.24933 16.9249 6.35105 16.7 6.5374C16.5734 6.64234 16.4688 6.77121 16.3921 6.91665C16.3154 7.06208 16.2682 7.22121 16.2531 7.38493C16.238 7.54866 16.2553 7.71375 16.3041 7.87075C16.3529 8.02776 16.4322 8.17359 16.5375 8.2999L21.075 13.7499L6.25 13.7499C5.91848 13.7499 5.60054 13.8816 5.36612 14.116C5.1317 14.3504 5 14.6684 5 14.9999C5 15.3314 5.1317 15.6494 5.36612 15.8838C5.60054 16.1182 5.91848 16.2499 6.25 16.2499Z" fill="#1D592C"/>
</g>
<defs>
<clipPath id="clip0_24_1288">
<rect width="30" height="30" fill="white" transform="translate(30 30) rotate(180)"/>
</clipPath>
</defs>
</svg>
