<svg width="135" height="165" viewBox="0 0 135 165" fill="none" xmlns="http://www.w3.org/2000/svg">
<path fill-rule="evenodd" clip-rule="evenodd" d="M8.71463 103.262C12.7418 101.848 16.5151 100.077 17.0988 99.3281C17.6832 98.5777 15.0982 99.2908 11.3527 100.913C7.60904 102.535 4.73475 103.296 4.96538 102.604C5.19599 101.913 7.13719 100.59 9.27867 99.6661C13.8816 97.6811 14.6957 96.8848 12.4351 96.5794C11.3178 96.4291 11.5287 95.8563 13.0795 94.8311C14.347 93.9929 15.1388 93.1167 14.8387 92.8829C14.2344 92.4123 8.51635 96.4926 3.0675 101.282C-1.84541 105.601 0.104375 106.284 8.71463 103.262ZM23.9765 107.09C25.5948 106.291 29.6 103.408 32.8786 100.683C38.0427 96.3929 39.0742 94.9664 40.5861 90.0303C42.2488 84.6027 42.551 84.2509 46.9042 82.6632C52.8916 80.4791 54.2724 82.882 50.7661 89.3832C49.2465 92.202 48.7507 93.9021 49.6656 93.1593C50.5798 92.4175 52.1252 89.7953 53.1002 87.3331C54.9836 82.5709 56.858 81.245 56.602 84.8559C56.5176 86.0534 56.7688 86.6348 57.1612 86.1503C57.5532 85.6639 57.7451 84.0222 57.5881 82.5008C57.3324 80.0404 57.9319 79.5642 63.0181 78.1883C67.5 76.9757 68.4702 77.0723 67.5073 78.6382C66.8306 79.7367 63.9343 84.255 61.069 88.6803C58.2037 93.1056 56.2383 97.0201 56.7014 97.3807C59.6641 99.6884 71.5773 86.7523 72.6576 80.0559C73.2761 76.2136 73.6108 75.8839 78.0134 74.7751L82.7083 73.591L78.2479 81.2088C73.6951 88.9811 73.4948 91.3612 77.648 88.32C81.2233 85.7017 83.5553 82.3227 84.9494 77.7399C86.0747 74.0425 86.7398 73.4331 90.7355 72.4383C96.9127 70.9019 97.6079 69.5053 91.5459 70.813C87.0388 71.7858 86.2701 71.5197 81.441 67.3242C76.9442 63.4188 76.6327 63.287 79.2086 66.3849L82.2031 69.9854L78.9201 67.8187L75.6372 65.6521L78.1533 68.8033C80.4478 71.6773 80.2541 71.6452 75.9508 68.4402C72.6634 65.9921 71.9068 65.0108 73.4551 65.2033C75.3588 65.4415 75.4943 65.191 74.4018 63.4561C72.9363 61.1279 69.4892 59.7187 68.4687 61.0289C67.5572 62.1991 70.5454 65.9524 75.4464 69.7962C80.594 73.8338 78.2237 75.6964 72.6279 72.0109C70.4154 70.5546 68.3095 69.742 67.9492 70.2046C67.5881 70.6682 66.5669 70.7817 65.6805 70.4583C64.7931 70.1341 65.2645 70.5308 66.7267 71.3402C71.3824 73.914 70.6831 75.5181 64.3115 76.8767C59.9152 77.8156 57.3372 77.5815 55.3726 76.0685C53.854 74.8998 51.5579 73.8593 50.2696 73.7584C48.4632 73.6164 48.6245 73.8965 50.9738 74.9815L54.0204 76.3879L50.4579 76.4287C48.4973 76.4507 45.582 76.3647 43.9794 76.2376C42.375 76.1108 43.5301 76.4827 46.5457 77.0653C49.5613 77.648 52.1982 78.2573 52.4065 78.4196C53.0561 78.9256 44.7684 82.4848 41.7453 82.9987C40.1611 83.2671 37.4142 82.3862 35.6431 81.0396L32.422 78.5915L34.6397 82.4661C35.8596 84.5969 36.4569 87.3186 35.9666 88.5139C35.205 90.3724 35.4593 90.4331 37.7257 88.9315C40.192 87.2967 40.3288 87.3486 39.6881 89.6792C38.5276 93.9005 34.902 97.9193 29.4166 101.063L24.1803 104.063L28.8887 96.7992L33.596 89.5345L26.8351 97.8403C19.852 106.416 18.8636 109.615 23.9765 107.09ZM48.1416 118.432C56.3172 117.306 66.4282 112.782 72.2168 107.66C77.1748 103.275 78.1085 102.849 77.9045 105.07C76.4515 120.817 76.0981 135.785 77.18 135.683C77.9203 135.613 77.7737 136.003 76.8537 136.548C75.1321 137.571 74.2082 141.968 75.7461 141.822C76.803 141.723 83.2398 128.324 84.7205 123.138C86.6124 116.517 85.6732 104.474 82.9624 100.573L80.4051 96.8966L87.7518 86.7156L95.0977 76.5356L86.289 87.8109C78.3299 97.9974 77.0159 99.2102 72.6754 100.375C70.0333 101.083 63.5068 104.129 58.1738 107.143C42.4476 116.032 39.2217 119.661 48.1416 118.432ZM106.865 161.829C107.63 160.062 109.101 157.519 110.136 156.178C111.813 154.005 111.767 153.882 109.712 155.042C107.715 156.17 107.615 155.726 108.956 151.743C109.809 149.212 110.232 146.457 109.898 145.622C109.562 144.788 109.237 144.736 109.174 145.508C108.96 148.12 105.417 160.311 104.972 159.964C104.729 159.774 104.745 156.8 105.008 153.355C105.271 149.91 105.166 148.017 104.775 149.151C103.482 152.899 103.179 163.252 104.337 164.154C105.06 164.718 105.984 163.868 106.865 161.829ZM22.5732 94.2225C24.5819 91.7691 28.0292 89.2556 30.6241 88.3534C36.9162 86.1631 36.7983 85.8933 29.3355 85.4259C23.0029 85.0283 18.4221 83.2452 21.2531 82.2802C22.058 82.0062 21.7322 81.5182 20.4686 81.107C18.859 80.5826 18.4853 80.8475 19.0033 82.1395C19.4189 83.1737 18.6163 82.9342 17.0208 81.5494L14.3417 79.2222L18.2544 79.1466C20.4061 79.1048 24.3398 79.1362 26.9947 79.2162C29.6497 79.2961 30.7304 79.1041 29.3938 78.7908C26.2103 78.043 9.07308 77.9606 8.40125 78.6913C7.61966 79.5395 23.8663 86.4426 26.141 86.228C30.0287 85.8612 29.8174 87.4596 25.832 88.5624C18.3197 90.6409 16.1995 91.8612 17.8567 93.152C18.6765 93.7905 19.7637 93.8753 20.2716 93.3402C20.7795 92.8051 20.7141 93.7505 20.1269 95.4403C19.2391 97.9969 19.6502 97.7924 22.5732 94.2225ZM49.7348 114.68C48.9807 114.579 48.4763 114.35 48.6148 114.172C49.5104 113.022 67.3503 103.411 70.2792 102.499C74.905 101.061 76.4844 102.277 72.7802 104.425C71.205 105.339 69.6816 106.923 69.393 107.944C69.1044 108.965 64.6574 111.584 59.511 113.762C54.3639 115.942 50.3669 117.081 50.6292 116.295C50.8913 115.508 50.489 114.782 49.7348 114.68ZM40.1845 108.557C42.7479 108.314 45.7666 102.862 45.2367 99.4306C44.6998 95.9548 44.6873 95.956 42.9137 99.5732C39.582 106.365 38.8791 108.68 40.1845 108.557ZM60.1514 111.7C64.6675 109.646 68.5875 107.627 68.864 107.215C69.1405 106.803 65.4016 108.191 60.5539 110.301C55.707 112.41 51.7869 114.428 51.8412 114.786C51.8974 115.144 55.6364 113.755 60.1514 111.7ZM77.9971 120.605C78.5203 113.496 79.2237 106.139 79.5613 104.255L80.1762 100.83L80.9194 105.313C81.3284 107.779 81.2883 113.68 80.8321 118.426C80.3742 123.173 80.4616 126.464 81.0248 125.741C82.2346 124.188 83.2127 111.286 82.3752 107.937C82.0543 106.657 82.1448 105.159 82.574 104.607C83.7951 103.04 84.9069 110.108 84.4601 116.595C84.2382 119.822 82.963 124.099 81.6254 126.099C80.2886 128.099 78.9329 130.762 78.6129 132.015C77.3237 137.066 77.0966 132.858 77.9971 120.605ZM97.3612 140.708C102.577 139.872 103.707 139.128 107.413 134.092L111.588 128.42L106.623 133.491C103.626 136.552 100.408 138.68 98.5055 138.86C95.4959 139.144 95.4975 139.025 98.5516 136.204C100.866 134.066 101.079 133.591 99.3236 134.483L96.8979 135.717L97.8767 133.356C98.4146 132.057 97.0139 133.249 94.7615 136.005C92.5092 138.76 90.851 141.157 91.0758 141.332C91.3006 141.507 94.1293 141.226 97.3612 140.708ZM52.0101 96.8499C54.3362 93.9379 56.2988 90.6928 56.372 89.6395C56.4463 88.5699 54.7547 90.3567 52.5436 93.6847C47.1422 101.813 46.9009 103.246 52.0101 96.8499ZM27.3885 83.0521C30.4418 83.0972 30.4431 83.07 27.422 82.3519C25.6911 81.9407 24.1176 81.8082 23.9245 82.0561C23.3454 82.7996 24.0479 83.0017 27.3885 83.0521ZM109.028 141.349C111.566 139.522 111.579 139.529 112.483 143.226C112.984 145.266 113.122 144.281 112.79 141.035C112.129 134.556 113.235 125.799 114.582 126.848C115.05 127.212 115.561 128.337 115.717 129.345C115.912 130.607 116.362 130.716 117.162 129.689C117.8 128.87 117.704 127.718 116.947 127.128C114.656 125.344 116.798 124.145 119.639 125.622C121.099 126.381 120.501 125.794 118.311 124.318C115.18 122.207 114.196 120.628 113.706 116.935C112.909 110.919 114.012 109.595 117.944 111.845C120.478 113.296 120.36 113.031 117.341 110.492C112.085 106.07 114.112 104.62 119.588 108.885C124.818 112.958 129.202 118.909 129.776 122.712C130.134 125.089 130.036 125.172 128.889 123.47C128.18 122.416 126.018 119.928 124.084 117.939L120.568 114.325L123.58 118.627C125.237 120.992 125.986 122.983 125.243 123.049C124.502 123.117 125.613 124.508 127.713 126.144C131.145 128.818 131.57 128.849 131.921 126.45C132.135 124.983 130.935 121.145 129.252 117.922C126.741 113.111 124.953 111.238 119.266 107.461C112.723 103.115 112.302 102.582 111.673 97.8456L111.008 92.8321L118.808 98.6375L126.608 104.444L120.366 98.631C116.109 94.667 115.084 93.277 117.143 94.2596C119.649 95.4541 119.584 95.291 116.766 93.2975C113.094 90.7011 114.025 89.5398 118.641 90.9584C120.646 91.5752 121.024 91.4324 119.895 90.4826C119.005 89.7363 116.286 89.076 113.854 89.0182C109.434 88.9139 109.432 88.9123 108.885 85.3673C108.337 81.8224 108.339 81.8222 113.193 84.552C115.864 86.0533 117.988 86.8813 117.912 86.3914C117.837 85.9022 115.542 84.4141 112.811 83.0851C108.196 80.8379 106.883 78.5259 110.798 79.5398C111.745 79.7844 111.287 79.417 109.778 78.721C108.269 78.025 107.221 77.218 107.448 76.9264C108.431 75.6648 115.753 77.4486 120.939 80.2119L126.574 83.2156L121.4 79.7165C118.105 77.4896 114.003 75.9856 110.115 75.5789C101.294 74.6579 98.7488 71.1781 102.806 65.584L105.805 61.4513L101.299 65.7496C96.5865 70.2465 94.5029 73.7299 95.8837 74.8054C96.3313 75.154 97.1743 74.2865 97.7557 72.8764C98.6095 70.8039 99.0587 70.7057 100.103 72.3622C100.812 73.4894 101.702 74.6554 102.08 74.953C102.457 75.2497 99.8998 79.264 96.3989 83.8736C89.0785 93.5082 88.3492 97.6374 94.745 93.2401C97.0134 91.6807 100.041 88.5062 101.473 86.1864C103.732 82.5297 103.5 82.6597 99.7253 87.1672C94.3204 93.6214 93.8199 90.2521 99.1573 83.3486C102.495 79.0336 102.795 78.9234 105.131 81.1667C106.484 82.4655 107.843 85.1495 108.148 87.1316C108.671 90.5087 108.491 90.7932 105.274 91.6839C103.386 92.206 101.193 93.5529 100.399 94.677C99.4933 95.961 100.353 95.7781 102.717 94.1818C108.04 90.5872 106.035 94.4729 98.7535 101.861C94.5656 106.11 93.1889 106.993 93.6889 105.109L94.3748 102.52L92.8907 104.487C92.0745 105.569 90.8856 107.78 90.2496 109.401C89.1069 112.31 89.1582 112.325 94.3365 110.559C98.8202 109.029 100.282 107.747 104.438 101.697C107.11 97.8052 109.579 94.8419 109.924 95.1109C110.27 95.38 110.785 97.5088 111.071 99.8412C111.462 103.024 110.907 104.638 108.849 106.308C100.694 112.923 101.026 112.599 103.691 111.337L106.185 110.157L104.865 112.252C103.926 113.743 104.429 113.683 106.604 112.045C108.993 110.245 108.602 111.158 104.819 116.213C101.662 120.43 98.9521 122.939 97.0326 123.421C93.5351 124.299 93.714 122.815 97.9049 116.2C99.8552 113.122 99.3142 113.525 95.8546 117.727C89.7346 125.161 89.4317 127.974 94.9343 126.264C97.782 125.377 100.896 122.793 105.334 117.633L111.666 110.266L112.558 115.326C113.05 118.109 112.862 121.006 112.141 121.766C111.421 122.524 110.077 124.225 109.154 125.544C107.783 127.505 107.91 127.941 109.85 127.937C112.848 127.932 112.457 132.433 108.905 138.823C106.775 142.654 106.79 142.959 109.028 141.349ZM47.1283 92.2668C48.3568 90.647 48.5453 89.9286 47.5467 90.6703C46.5482 91.412 45.5437 92.7378 45.3137 93.6158C45.0838 94.4939 45.8998 93.8866 47.1283 92.2668ZM126.564 150.234C126.98 149.7 126.871 148.912 126.322 148.484C125.773 148.057 126.018 147.306 126.868 146.817C127.718 146.328 128.042 144.684 127.592 143.162C126.891 140.8 126.804 140.741 126.999 142.762C127.433 147.27 126.053 146.602 124.219 141.418C123.206 138.556 121.47 135.917 120.363 135.556C118.832 135.058 118.516 135.32 119.047 136.645C119.433 137.605 120.644 138.682 121.736 139.038C122.949 139.433 123.142 139.884 122.232 140.195C121.399 140.479 121.659 142.877 122.815 145.6C125.18 151.169 125.514 151.583 126.564 150.234ZM105.228 130.493C106.269 129.157 106.461 128.427 105.655 128.873C104.848 129.318 103.996 130.411 103.762 131.303C103.528 132.193 104.187 131.829 105.228 130.493ZM50.299 86.1476C51.3399 84.8112 51.532 84.0817 50.7255 84.5279C49.9188 84.9723 49.0671 86.0657 48.833 86.9577C48.5985 87.8479 49.2581 87.484 50.299 86.1476ZM39.3035 78.2142C42.1652 79.1923 45.3545 79.8837 46.3916 79.7498C47.5913 79.5943 47.0858 79.2521 45.0024 78.8084C43.2005 78.4246 41.3174 77.492 40.8178 76.7359C40.3181 75.9797 38.1008 74.9615 35.8899 74.4731C29.5973 73.0839 30.9197 71.7435 37.8664 72.4694C41.3149 72.8302 44.2801 72.9395 44.4565 72.713C44.9365 72.0968 37.3087 71.0731 31.706 71.002L26.7841 70.9396L30.4426 73.6876C32.455 75.1988 36.4426 77.2351 39.3035 78.2142ZM98.8988 119.317C100.356 117.446 100.739 116.516 99.7524 117.249C98.7642 117.982 97.5712 119.513 97.1027 120.651C96.6333 121.787 97.4415 121.188 98.8988 119.317ZM62.5296 90.9892C63.1906 90.7638 63.473 89.9376 63.1585 89.1523C62.5216 87.5662 66.6098 81.8071 69.5922 80.0903C72.9928 78.1323 71.5964 82.4713 66.8552 88.5945C64.0756 92.1824 62.2636 93.7302 61.9008 92.8261C61.5863 92.0409 61.8687 91.2146 62.5296 90.9892ZM127.966 139.004C128.104 137.31 125.893 131.951 125.345 132.654C125.17 132.879 125.659 134.762 126.431 136.84C127.203 138.918 127.895 139.892 127.966 139.004ZM120.615 132.914C120.432 131.704 119.832 130.758 119.283 130.81C118.732 130.862 118.881 131.851 119.613 133.009C120.672 134.68 120.877 134.662 120.615 132.914ZM66.4333 86.8729C67.2657 85.7021 67.2008 85.2814 66.2684 85.7998C65.4238 86.2694 64.8076 87.1371 64.8986 87.7265C64.9897 88.3158 65.6797 87.9319 66.4333 86.8729ZM101.241 101.621L105.235 98.4855L102.183 102.618C100.504 104.891 98.1632 107.283 96.9801 107.934C94.9662 109.044 94.9057 108.981 96.0379 106.938C96.7036 105.739 99.0447 103.346 101.241 101.621ZM96.2995 99.334C97.528 97.7142 97.7164 96.9958 96.7179 97.7375C95.7193 98.4792 94.7148 99.8049 94.4849 100.683C94.2549 101.561 95.071 100.954 96.2995 99.334ZM120.55 117.937C120.025 117.077 119.108 116.419 118.514 116.475C117.921 116.531 118.35 117.234 119.47 118.039C120.708 118.928 121.132 118.888 120.55 117.937ZM60.5751 71.1633C59.3441 69.8189 58.2146 68.0208 58.0653 67.1659C57.912 66.2907 58.7174 66.6478 59.9112 67.9868C61.7733 70.0759 61.8604 70.0641 60.6415 67.8873C59.3794 65.6363 52.1594 62.8235 51.1071 64.1745C50.9095 64.4282 53.4622 66.6538 56.7807 69.1215C60.0993 71.5892 61.806 72.5078 60.5751 71.1633ZM27.774 40.9987C34.8963 39.8549 40.834 36.9433 43.8163 33.1292C44.9853 31.6348 48.1271 30.0516 50.8541 29.5818C54.1165 29.02 55.0875 29.1923 53.7283 30.0887C52.5986 30.8328 51.2802 32.6168 50.7991 34.0535C49.9551 36.5708 50.0183 36.5982 52.5625 34.8165C54.627 33.37 54.466 33.9254 51.8249 37.3651C49.8446 39.9437 48.6994 40.8334 49.0557 39.5166C49.5637 37.637 49.0768 37.5686 46.0722 39.0948C44.097 40.097 41.6899 42.2558 40.7226 43.8932C39.0128 46.784 39.1268 46.7993 44.7742 44.4285C49.8482 42.2982 51.1806 41.064 55.295 34.6883C59.7446 27.7929 60.2766 27.3545 64.8627 26.8228L69.7198 26.2601L69.3011 29.4757C68.9507 32.1698 69.1115 32.4122 70.2894 30.9638C71.0622 30.0119 71.9485 29.8653 72.2583 30.6375C72.9711 32.4154 73.6622 31.5451 74.1426 28.2651C74.4219 26.3558 75.5045 25.4892 78.3951 24.8625C80.528 24.4001 82.2123 23.6225 82.1372 23.1361C81.863 21.361 85.5091 25.4565 86.8335 28.4104C88.3551 31.8067 88.9114 31.603 89.5218 27.4264C89.8697 25.0505 90.7876 24.474 94.9975 23.9849C101.428 23.2394 101.917 23.6922 98.6878 27.4089C97.0572 29.2855 96.9248 29.6852 98.3374 28.4587C101.027 26.1265 105.151 25.4924 105.535 27.3517C105.685 28.0707 106.136 27.5778 106.54 26.2556C107.033 24.6404 108.603 23.6836 111.32 23.3418C115.399 22.8272 119.777 24.9355 118.375 26.7365C117.958 27.2711 118.07 28.0611 118.623 28.4916C119.255 28.984 119.951 28.1502 120.495 26.2438C121.222 23.6997 121.896 23.3533 124.7 24.0882C127.61 24.8493 127.864 25.2234 126.672 26.9856C125.919 28.0995 125.078 29.5376 124.803 30.1822C124.528 30.8268 122.659 33.5868 120.648 36.3151C118.637 39.0433 117.339 41.5459 117.765 41.8776C118.191 42.2093 120.861 39.019 123.701 34.7889C126.54 30.5587 129.226 27.3804 129.669 27.7258C132.32 29.7909 135.261 36.9678 134.086 38.5042C133.308 39.5232 133.389 40.0927 134.278 39.853C136.545 39.243 138.799 41.5067 137.977 43.5663C137.343 45.1543 137.268 45.0956 137.305 43.0426C137.382 38.7597 136.34 41.9197 135.605 48.1963C134.664 56.2375 133.473 57.7213 133.02 51.4173C132.824 48.6882 132.465 47.7055 132.222 49.2341C131.978 50.7618 131.922 54.2314 132.096 56.9436L132.411 61.8739L135.455 57.9755C137.13 55.8319 138.836 51.7654 139.249 48.9385C139.794 45.1923 140.437 43.9349 141.621 44.2968C142.535 44.5761 142.482 44.1443 141.501 43.3112C139.186 41.3441 140.738 39.4705 143.136 41.338C144.162 42.1372 146.402 42.8497 148.114 42.9232C151.739 43.0764 150.881 41.9363 146.76 41.1238C145.203 40.8178 143.169 39.4996 142.24 38.195C140.697 36.0246 141.048 35.895 146.393 36.6667C149.721 37.146 153.77 38.7397 155.804 40.3695C158.977 42.9122 158.475 42.8794 151.304 40.0845C146.866 38.3547 143.291 37.3069 143.361 37.7578C143.43 38.2069 145.103 39.1072 147.078 39.7566C149.053 40.4068 150.923 41.5694 151.234 42.3424C151.858 43.8982 161.282 46.1006 162.21 44.909C162.531 44.4959 160.684 42.5134 158.103 40.5029C153.142 36.6387 146.935 34.7227 140.424 35.047C136.716 35.2321 136.296 34.9628 133.242 30.4414L129.998 25.6398L138.728 13.8299C143.643 7.17962 148.209 1.94899 149.178 1.85754C151.249 1.66215 152.739 6.42842 153.528 15.7734C154.062 22.0959 153.214 21.8491 151.44 15.1654C150.653 12.2022 150.61 12.1873 150.684 14.917C150.756 17.5595 153.481 24.4102 154.9 25.5154C155.223 25.7668 155.881 23.6128 156.364 20.7298C157.368 14.7204 154.964 0.579627 152.628 -1.23965C151.468 -2.14327 151.95 -3.70432 154.474 -7.21944L157.89 -11.976L154.097 -7.90345C151.121 -4.70864 149.091 -3.76508 144.679 -3.52709C141.585 -3.36034 140.148 -3.14282 141.485 -3.04474C147.025 -2.63637 147.186 -2.37239 143.43 0.133316C141.42 1.47561 139.53 2.25825 139.23 1.87321C138.93 1.48816 136.554 1.44575 133.949 1.77976C131.345 2.11376 129.768 2.82811 130.443 3.3668C131.221 3.98777 130.866 4.24727 129.479 4.07382C126.798 3.73961 125.815 1.76213 127.871 0.841432C128.698 0.47071 127.982 0.44817 126.281 0.789656C120.61 1.93073 120.862 3.4009 126.946 4.67114C131.59 5.64039 137.368 4.91077 142.635 2.68926C146.4 1.10216 146.231 1.44047 137.867 12.2487L129.195 23.4526L124.711 22.6861C121.253 22.0947 119.938 21.3093 118.967 19.2568C118.273 17.7922 117.239 16.6372 116.668 16.692C116.096 16.746 116.17 17.2118 116.831 17.7266C117.494 18.2423 117.694 19.1013 117.278 19.6359C116.861 20.1705 115.101 19.5018 113.366 18.1508C111.526 16.7171 110.792 15.4949 111.606 15.2182C113.213 14.6695 111.351 13.1441 107.627 11.9593C103.762 10.7292 105.614 14.1942 111.11 18.4753L115.63 21.9958L111.141 21.9187C107.7 21.8589 105.609 20.9179 102.178 17.8828C98.2093 14.3733 98.0507 14.3216 100.771 17.4302C103.517 20.5669 103.546 20.8883 101.054 20.4868C99.5218 20.2396 97.4234 19.1049 96.3902 17.966C94.5794 15.9684 94.5617 15.9826 95.8965 18.37C96.6577 19.7327 97.7766 20.9274 98.3827 21.0278C100.839 21.4309 98.1649 22.573 94.2502 22.7938C91.9495 22.9226 88.1597 22.0195 85.8273 20.7852C83.4959 19.5518 81.5361 19.1685 81.4732 19.9363C81.4084 20.7384 79.4988 19.8334 76.9696 17.801C73.8746 15.3122 73.3364 14.512 75.1472 15.0886C78.9254 16.2918 77.1972 13.2311 72.8274 10.9815C70.8082 9.94277 68.9023 9.42017 68.5896 9.82158C67.8439 10.7789 72.4565 15.9566 77.6765 20.0225C81.7674 23.2088 81.7799 23.2671 78.4517 23.7496C76.0932 24.091 73.6075 23.162 70.2327 20.6771C65.4289 17.1384 65.4171 17.1387 68.4464 20.6413C70.8882 23.4645 70.9612 23.7962 68.8084 22.3037C66.8555 20.9481 66.3251 20.9674 66.8714 22.372C67.5064 24.0051 67.3406 24.218 65.8069 23.7386C64.3238 23.2752 64.2499 23.3957 65.3997 24.3912C66.3999 25.2577 65.5572 25.7694 62.4944 26.1557C59.3658 26.5499 56.9995 25.8312 53.8879 23.5404C49.7961 20.5297 49.7135 20.5294 52.122 23.5188L54.6486 26.6564L50.6277 24.7331C48.038 23.4953 46.8559 23.4303 47.3059 24.5523C47.6904 25.5092 48.8709 26.5739 49.9304 26.9197C51.5045 27.4321 51.3579 27.7522 49.1275 28.6758C47.6278 29.2973 45.2803 29.3693 43.9118 28.8374C41.079 27.735 32.0473 29.0798 30.715 30.803C30.2288 31.4315 31.8568 31.241 34.3344 30.3786C42.0893 27.6802 41.0469 30.0758 32.976 33.501C28.1693 35.5413 25.327 36.1102 25.4016 35.0189C25.4676 34.06 24.237 34.9082 22.6659 36.9061C21.0967 38.9038 20.2271 40.8625 20.7355 41.2585C21.2439 41.6545 24.4118 41.5375 27.774 40.9987ZM67.1995 74.3429C67.9889 74.0739 67.7026 73.5886 66.5267 73.2051C64.2371 72.4603 63.3674 72.9026 64.8503 74.0576C65.3845 74.4737 66.4412 74.6018 67.1995 74.3429ZM82.2152 80.1951C83.2137 79.4534 83.0253 80.1718 81.7968 81.7916C80.5683 83.4113 79.7523 84.0187 79.9822 83.1407C80.2122 82.2626 81.2167 80.9368 82.2152 80.1951ZM33.1615 35.2773C42.7076 31.2365 44.6631 31.3168 39.4464 35.5362C36.7942 37.682 25.8786 40.5796 24.4978 39.5041C24.2421 39.3049 28.1411 37.4025 33.1615 35.2773ZM65.3613 68.2092C67.1507 68.7176 67.5614 68.5518 66.5688 67.7225C65.7415 67.0297 64.0375 66.3458 62.7832 66.2012C60.0041 65.8808 61.6324 67.1491 65.3613 68.2092ZM163.506 134.713C167.129 130.061 167.727 120.908 165.297 107.271C163.993 99.9592 163.544 94.8371 164.298 95.8898C167.134 99.8474 181.699 113.814 182.875 113.704C185.025 113.501 181.947 103.017 178.397 98.4461C176.512 96.0214 174.619 94.0704 174.189 94.1119C173.759 94.1516 175.071 96.2601 177.104 98.795C179.138 101.33 180.875 104.632 180.966 106.132C181.114 108.584 180.925 108.589 179.098 106.169C177.468 104.01 177.2 103.937 177.744 105.797C178.266 107.584 177.007 106.807 172.265 102.413C166.012 96.6204 163.883 92.7807 166.44 91.9082C167.392 91.5834 167 91.2746 165.233 90.9604C163.173 90.5928 162.063 88.8911 160.032 82.9881L157.45 75.4819L159.171 83.4494C160.499 89.6061 160.393 91.7458 158.701 92.8636C157.245 93.8258 157.069 94.3863 158.172 94.5353C159.277 94.685 158.792 96.2003 156.724 99.0682C154.287 102.446 154.202 102.822 156.328 100.804C157.82 99.389 159.781 98.1494 160.688 98.0513C163.069 97.7915 164.299 106.041 162.269 108.648C160.385 111.067 159.361 126.167 160.623 132.92L161.451 137.351L163.506 134.713ZM134.735 108.636C136.752 109.548 136.846 109.167 135.503 105.523C134.661 103.238 133.257 100.853 132.383 100.22C131.508 99.5878 131.582 100.451 132.546 102.137C133.992 104.664 133.926 105.028 132.177 104.207C131.01 103.659 129.738 103.616 129.352 104.111C128.625 105.045 130.761 106.842 134.735 108.636ZM161.51 118.248C161.76 114.353 162.159 110.916 162.399 110.609C162.962 109.886 164.931 111.939 165.815 114.174C166.947 117.036 165.279 128.627 163.653 129.181C161.552 129.898 160.957 126.868 161.51 118.248ZM163.731 128.042C164.093 127.578 164.376 125.825 164.363 124.147C164.338 121.203 164.297 121.19 163.209 123.756C162.087 126.407 162.482 129.647 163.731 128.042ZM150.698 114.772C152.65 113.719 155.381 111.016 156.769 108.766L159.293 104.675L155.878 108.702C153.251 111.8 151.851 112.521 149.813 111.832C147.497 111.048 147.161 111.299 147.157 113.811C147.152 116.512 147.367 116.57 150.698 114.772ZM63.2746 43.2116C66.28 41.2846 69.49 38.3397 70.41 36.667C71.9146 33.9334 71.7924 33.9521 69.2083 36.8506C67.6252 38.6236 65.2514 40.6396 63.9309 41.3288C61.9397 42.3686 61.9523 41.9802 64.0053 39.0444C66.2967 35.7665 66.2795 35.6375 63.761 37.2926C59.9323 39.8087 55.734 45.0946 56.8652 45.9758C57.386 46.3814 60.2711 45.1384 63.2746 43.2116ZM73.8185 48.8319C80.7034 44.8531 86.0901 39.3497 87.1507 35.2099C87.8386 32.5273 87.4847 32.8029 85.1351 36.7788C83.5349 39.4864 80.1934 43.0489 77.5164 44.899L72.7478 48.1963L75.4233 44.0339C76.8949 41.7446 77.9925 39.1358 77.8617 38.2359C77.6655 36.8838 68.3676 49.9549 68.4259 51.501C68.435 51.7423 70.862 50.5409 73.8185 48.8319ZM129.103 96.4541C128.007 95.2284 125.919 93.6027 124.463 92.8396C123.005 92.0775 123.902 93.0807 126.454 95.0687C129.006 97.0566 130.199 97.6807 129.103 96.4541ZM126.761 90.2949C131.061 91.7857 131.195 91.7325 129.92 89.0388C128.278 85.5691 127.339 84.7626 127.181 86.6901C127.109 87.5768 125.281 86.8154 122.565 84.7655C120.091 82.8998 116.85 81.0218 115.363 80.5922C113.613 80.0882 114.779 81.2227 118.66 83.8038C122.964 86.6657 123.877 87.6017 121.883 87.1108C117.815 86.1079 121.364 88.4259 126.761 90.2949ZM165.084 117.861C165.303 116.361 165.204 114.441 164.864 113.594C164.524 112.745 164.149 113.82 164.031 115.981C163.783 120.558 164.501 121.841 165.084 117.861ZM41.6835 23.3853C41.0484 21.7523 41.2249 21.5257 42.8123 21.9361C43.8469 22.2032 43.1224 21.5655 41.2044 20.5182C37.9038 18.7188 37.8859 18.6205 40.8649 18.7015C45.1649 18.8198 43.4554 17.7241 38.4967 17.1834L34.4766 16.7459L36.4574 19.3443C39.5163 23.3556 42.5986 25.7393 41.6835 23.3853ZM153.315 107.045C154.355 105.709 154.548 104.979 153.741 105.425C152.934 105.87 152.083 106.963 151.848 107.855C151.614 108.746 152.274 108.382 153.315 107.045ZM151.735 102.692C152.776 101.355 152.968 100.626 152.161 101.072C151.355 101.516 150.503 102.61 150.269 103.502C150.034 104.392 150.694 104.028 151.735 102.692ZM97.5046 55.8282C102.184 55.5037 104.997 54.6161 105.353 53.3524C105.66 52.2689 106.359 51.7329 106.908 52.1602C107.457 52.5883 108.577 52.2296 109.394 51.3637C110.212 50.4986 109.496 52.224 107.803 55.1997L104.725 60.6103L109.195 55.2051C115.557 47.5115 118.435 48.7628 118.46 59.2297C118.466 61.9902 119.101 64.2212 119.868 64.1866C120.637 64.1518 120.447 64.431 119.446 64.8055C118.086 65.3156 117.272 63.503 116.214 57.6037L114.803 49.7205L114.946 56.079C115.133 64.2975 116.487 71.3396 117.858 71.2111C121.743 70.8437 122.771 52.0232 119.064 49.1357C118.016 48.3196 117.283 46.5184 117.433 45.1327C117.634 43.284 117.41 42.9782 116.588 43.9842C115.974 44.7382 113.63 45.5871 111.381 45.8704C107.627 46.3426 107.505 46.4558 109.899 47.2349C112.471 48.0719 112.451 48.1017 108.402 49.3609C106.144 50.0629 102.248 51.3851 99.7436 52.2985C97.2394 53.212 94.9978 53.4821 94.7633 52.8981C94.5299 52.315 92.9744 52.5104 91.3098 53.333C86.9075 55.507 89.1439 56.4072 97.5046 55.8282ZM65.3608 32.9434C66.1933 31.7725 66.1283 31.3518 65.1959 31.8702C64.3513 32.3399 63.7351 33.2076 63.8262 33.797C63.9172 34.3863 64.6073 34.0024 65.3608 32.9434ZM141.969 91.0672C143.244 90.4048 146.264 87.1869 148.681 83.916C152.011 79.4081 152.953 78.6303 152.574 80.7021C152.201 82.7337 152.752 82.2396 154.716 78.7801C156.905 74.9273 157.964 74.1115 160.867 74.0429C162.796 73.9977 164.294 73.4421 164.197 72.8084C164.098 72.1756 164.935 72.3155 166.055 73.1203C167.175 73.9259 167.688 73.918 167.195 73.1063C166.702 72.2928 164.145 71.4751 161.51 71.2888C158.819 71.0979 156.199 70.1222 155.531 69.0604C154.518 67.4514 154.365 67.5586 154.5 69.7872C154.718 73.4101 144.372 89.0376 143.095 87.0112C142.063 85.3716 141.348 86.0892 140.331 89.7916C139.661 92.2395 139.682 92.2556 141.969 91.0672ZM100.358 53.1599C102.554 52.2135 104.418 51.8872 104.503 52.4357C104.661 53.4564 97.8219 56.0144 96.8855 55.2851C96.6009 55.0634 98.1631 54.1064 100.358 53.1599ZM87.616 47.2842C89.6732 46.449 96.1363 35.9623 95.0927 35.1494C94.0058 34.3028 91.797 37.0877 88.5857 43.3548C87.3275 45.8103 86.8902 47.5779 87.616 47.2842ZM101.834 49.6654C104.756 48.5631 106.938 47.499 106.683 47.3006C105.973 46.7472 96.2995 50.2282 96.4179 50.9951C96.4752 51.3661 98.9129 50.7677 101.834 49.6654ZM94.4718 44.7147C96.0928 43.7739 98.9541 40.9086 100.831 38.346L104.242 33.6873L99.3001 38.4266C96.5821 41.0333 93.4271 43.6715 92.2895 44.2876C91.1528 44.9045 90.514 45.6375 90.8728 45.917C91.2307 46.1958 92.8499 45.6548 94.4718 44.7147ZM59.7465 20.1114C57.7761 17.9614 56.967 16.7283 57.95 17.3722C59.6375 18.4773 65.3331 18.2164 63.8987 17.0991C63.5275 16.8099 61.0774 15.9416 58.4541 15.1679C52.208 13.3277 52.1748 15.8315 58.3845 20.3902L63.3294 24.0201L59.7465 20.1114ZM149.469 87.5923C150.499 86.9998 151.71 85.9806 152.162 85.3283C152.612 84.6762 151.72 84.8432 150.179 85.6999C148.638 86.5577 147.427 87.576 147.487 87.9648C147.547 88.3535 148.439 88.1865 149.469 87.5923ZM140.028 76.2883C143.089 73.7095 147.492 65.2597 148.163 60.6713C148.602 57.6653 149.196 57.8813 151.241 61.7911C152.645 64.4763 152.666 64.4662 151.87 61.5003C151.416 59.8115 150.594 57.9953 150.043 57.4646C149.491 56.9332 150.692 57.2493 152.712 58.1664L156.383 59.8344L153.441 57.2304L150.498 54.6274L156.056 56.0003C159.113 56.7556 161.012 56.8871 160.276 56.291C159.541 55.6966 157.611 54.9476 155.988 54.628C153.736 54.184 153.434 53.9109 154.711 53.4742C157.281 52.5978 165.018 55.2448 168.731 58.2713L172.058 60.9823L166.885 59.1147C162.34 57.4733 162.169 57.4993 165.473 59.3316C170.656 62.2068 169.406 62.9353 162.439 61.1001C159.226 60.2542 157.228 60.0691 158 60.6896C158.773 61.3101 163.062 62.4353 167.53 63.1889C174.396 64.3484 175.437 64.2061 174.24 62.2793C170.267 55.8742 160.17 51.3419 151.313 51.9857C147.21 52.2847 145.925 53.0922 142.772 57.3528C139.706 61.4972 139.576 61.9561 142.024 59.9916C144.932 57.6568 144.944 57.7142 142.683 63.1487C139.705 70.3006 139.009 71.0246 139.413 66.5469C139.809 62.1439 139.289 63.3808 137.294 71.58C136.466 74.9828 136.077 77.9938 136.43 78.2721C136.784 78.5503 138.402 77.6575 140.028 76.2883ZM82.728 29.4227C84.3821 27.2756 84.7628 26.3509 83.5746 27.368C82.3863 28.3851 81.0329 30.1419 80.5669 31.2719C80.101 32.4018 81.0738 31.5698 82.728 29.4227ZM119.501 56.8937C119.579 53.3536 119.828 52.7169 120.359 54.7011C121.113 57.5233 120.764 62.953 119.872 62.2582C119.607 62.0518 119.441 59.6388 119.501 56.8937ZM175.683 101.53C174.882 100.512 173.257 99.2463 172.074 98.7185C170.892 98.1898 171.548 99.0221 173.533 100.568C175.518 102.114 176.485 102.546 175.683 101.53ZM139.694 70.8339C140.58 70.3244 142.264 67.5963 143.437 64.7705C147.509 54.976 147.643 54.7598 147.181 58.7396C146.49 64.6725 142.523 72.5661 140.366 72.3023C137.899 72.0001 137.851 71.8957 139.694 70.8339ZM108.869 40.7205C110.491 40.4143 111.769 38.9467 113.175 35.7775C115.139 31.3544 115.129 31.3265 112.674 34.2687C111.299 35.9167 109.504 37.0153 108.684 36.7099C107.651 36.3238 107.099 36.9181 106.879 38.6552C106.608 40.7988 106.894 41.095 108.869 40.7205ZM84.2902 17.8235C83.1883 16.592 81.3253 15.155 80.1502 14.6301C78.9751 14.1052 79.8765 15.1133 82.1535 16.8697C84.4305 18.6261 85.3921 19.055 84.2902 17.8235ZM165.459 79.0262C168.083 80.0393 168.292 79.9584 166.645 78.5676C165.545 77.6394 163.62 76.7612 162.365 76.6166C159.702 76.3096 160.956 77.2863 165.459 79.0262ZM90.204 19.297C91.5389 19.923 93.3514 20.3869 94.2312 20.3272C95.111 20.2676 93.6507 19.2708 90.9846 18.114C83.8005 14.9935 83.1462 15.9845 90.204 19.297ZM173.933 83.0372C174.992 83.4326 176.722 84.0825 177.779 84.4808C180.952 85.6798 177.187 78.8778 172.961 75.7762L169.271 73.069L172.854 76.9777L176.436 80.8865L172.083 77.9672L167.729 75.0479L170.995 78.3003C173.747 81.0403 173.839 81.4243 171.581 80.7386C168.649 79.8491 170.662 81.8168 173.933 83.0372ZM116.687 34.7914C118.144 32.9204 118.527 31.9901 117.54 32.7235C116.552 33.4561 115.359 34.9879 114.891 36.1253C114.421 37.2619 115.229 36.6624 116.687 34.7914ZM85.4937 12.9174C85.8146 11.7822 87.0153 11.451 88.5905 12.0642C90.0065 12.6159 91.1129 12.7249 91.0477 12.3087C90.9843 11.8924 88.3763 10.8651 85.2522 10.0262C79.2962 8.42602 78.2105 9.50725 82.4539 12.8125C84.2277 14.194 85.125 14.2246 85.4937 12.9174ZM136.761 48.8653C137.13 46.5764 137.664 44.8844 137.948 45.1053C138.232 45.3262 138.161 47.3797 137.792 49.6685C137.422 51.9574 136.888 53.6494 136.605 53.4285C136.321 53.2076 136.391 51.1541 136.761 48.8653ZM133.549 44.3443C133.907 43.0839 133.751 42.0956 133.2 42.1475C132.65 42.1985 132.356 43.2295 132.547 44.4388C132.824 46.1849 133.029 46.1646 133.549 44.3443ZM95.4319 14.0464C94.9071 13.1864 93.99 12.5281 93.3963 12.5842C92.8026 12.6402 93.2323 13.3435 94.3518 14.1483C95.5895 15.0374 96.0133 14.9974 95.4319 14.0464ZM76.6847 -9.09296C83.6633 -10.9032 83.7826 -10.9882 83.8555 -14.2045C83.8961 -15.9797 83.6552 -15.8534 82.8043 -13.6569C82.1185 -11.8893 81.487 -11.338 81.1402 -12.2031C80.8312 -12.97 79.6149 -12.8805 78.4347 -12.0055C77.2544 -11.1305 76.0474 -11.0166 75.751 -11.755C75.4556 -12.4926 73.9914 -11.9464 72.4973 -10.543C71.0035 -9.13768 69.9306 -7.87303 70.1121 -7.73166C70.2936 -7.5903 73.2515 -8.20351 76.6847 -9.09296ZM57.9429 -20.1163C60.4158 -19.7814 64.1744 -19.8209 66.2952 -20.2038C69.2314 -20.7339 68.7295 -20.9 64.1898 -20.8958C60.9118 -20.8927 56.9401 -21.0582 55.3635 -21.2634C53.7879 -21.4677 52.7115 -21.4301 52.9724 -21.18C53.2325 -20.929 55.4692 -20.4503 57.9429 -20.1163ZM66.8504 -25.4071C72.7958 -26.1482 77.8762 -26.2106 78.1429 -25.5469C78.4099 -24.8814 79.0521 -24.8826 79.5706 -25.5483C80.0884 -26.2132 82.4296 -27.0662 84.7744 -27.4433L89.0357 -28.1281L84.6883 -28.0006C82.2968 -27.9316 79.7903 -28.3021 79.1179 -28.8258C78.4445 -29.3503 77.5648 -29.3547 77.1613 -28.8366C76.7586 -28.3196 75.9623 -28.6352 75.3923 -29.5413C74.8226 -30.4457 73.6927 -30.9606 72.8827 -30.6842C71.9865 -30.3781 72.2124 -29.9194 73.4599 -29.513C77.1793 -28.3025 74.393 -27.2544 64.9289 -26.3011C59.7951 -25.7852 55.6965 -25.0689 55.8199 -24.7104C55.9423 -24.3527 60.9069 -24.6662 66.8504 -25.4071ZM94.4984 -7.86688C99.3351 -10.6583 99.3494 -10.683 95.7367 -10.0162C93.2036 -9.54842 92.2071 -9.84521 92.4914 -10.9824C92.7175 -11.8853 91.8651 -11.1484 90.5982 -9.34313C87.4904 -4.91926 88.639 -4.48372 94.4984 -7.86688ZM73.7393 -22.2183C75.2408 -22.8399 76.4179 -23.6831 76.3537 -24.0922C76.2907 -24.5004 74.8567 -24.1527 73.1669 -23.3169C69.4566 -21.4846 69.9017 -20.6288 73.7393 -22.2183ZM65.9057 -30.1375L69.5735 -30.7943L65.8111 -30.7499C62.276 -30.7082 61.0571 -30.4004 61.8821 -29.7579C62.078 -29.6053 63.8885 -29.777 65.9057 -30.1375ZM214.958 78.1505C216.821 73.1273 217.345 63.6909 215.967 59.983C215.217 57.9636 212.991 54.7995 211.02 52.9521C209.05 51.1037 206.446 47.5159 205.234 44.9773L203.031 40.3612L210.683 45.4268L218.336 50.4913L210.825 44.1805C205.218 39.4695 204.235 38.3043 206.951 39.5825L210.587 41.2952L207.82 38.4667L205.052 35.6391L209.98 37.402C212.907 38.4486 215.81 40.336 217.13 42.0484L219.352 44.933L216.201 43.6608C213.1 42.4089 213.097 42.4299 215.978 45.01C217.589 46.4519 219.295 47.8507 219.77 48.1182C220.245 48.3868 220.292 49.0433 219.876 49.5779C219.46 50.1125 219.843 51.1137 220.727 51.8021C223.196 53.7258 222.858 50.6401 219.957 44.7984C216.978 38.7993 212.846 36.0554 205.158 34.9718C201.552 34.4637 199.771 34.982 198.228 36.9872C196.849 38.7787 196.766 39.4854 197.982 39.0879C199.481 38.5961 199.828 38.866 199.903 40.5843C200.014 43.1511 198.185 54.0271 197.493 54.9164C196.416 56.2985 195.767 50.2542 196.485 45.5237C196.901 42.7811 196.896 40.9706 196.476 41.502C194.874 43.5181 195.058 59.9179 196.695 61.1926C198.145 62.3219 202.789 53.9835 203.144 49.6131C203.778 41.8458 205.388 45.1942 206.309 56.1927C206.771 61.7089 207.79 67.4841 208.573 69.0266C209.357 70.5708 209.205 68.2583 208.235 63.8895C207.266 59.5198 206.882 55.9071 207.381 55.8601C208.78 55.7281 212.455 72.0219 211.128 72.4749C209.944 72.8784 211.475 78.951 213.075 80.1976C213.555 80.5711 214.402 79.6492 214.958 78.1505ZM89.69 -19.8105C90.9184 -21.4303 91.1069 -22.1487 90.1083 -21.407C89.1098 -20.6653 88.1053 -19.3396 87.8754 -18.4615C87.6454 -17.5834 88.4615 -18.1908 89.69 -19.8105ZM212.056 73.3131C212.746 73.0777 212.416 68.6045 211.323 63.373C210.023 57.1479 209.957 54.3446 211.13 55.2587C214.111 57.58 215.387 61.5226 215.344 68.2697C215.313 73.103 214.83 74.6228 213.381 74.4442C210.869 74.1347 210.521 73.837 212.056 73.3131ZM100.667 -14.513C101.5 -15.6839 101.435 -16.1046 100.503 -15.5862C99.658 -15.1166 99.0418 -14.2488 99.1328 -13.6595C99.2238 -13.0701 99.9139 -13.4541 100.667 -14.513ZM108.133 -8.86691C111.864 -12.7301 113.299 -14.6953 112.719 -15.1467C111.669 -15.9644 106.431 -10.6532 106.968 -9.31528C107.226 -8.67234 107.75 -8.46973 108.133 -8.86691ZM90.0811 -24.3203C90.9135 -25.4912 90.8485 -25.9119 89.9162 -25.3935C89.0716 -24.9238 88.4554 -24.0561 88.5464 -23.4667C88.6375 -22.8774 89.3275 -23.2614 90.0811 -24.3203ZM106.607 -16.0036C107.835 -17.6234 108.024 -18.3418 107.025 -17.6001C106.027 -16.8584 105.022 -15.5326 104.792 -14.6546C104.562 -13.7765 105.378 -14.3839 106.607 -16.0036ZM101.451 -20.0197C102.679 -21.6395 102.868 -22.3578 101.869 -21.6161C100.871 -20.8745 99.8661 -19.5487 99.6361 -18.6706C99.4062 -17.7925 100.222 -18.3999 101.451 -20.0197ZM200.155 48.6623C200.818 44.6682 201.564 41.5613 201.815 41.7565C202.822 42.5412 201.977 50.7634 200.551 54.0425C198.679 58.3515 198.639 57.8016 200.155 48.6623ZM134.757 2.75087C136.752 2.13126 138.449 2.04234 138.528 2.55536C138.66 3.4092 132.386 4.85663 131.511 4.17471C131.302 4.01246 132.763 3.37129 134.757 2.75087ZM96.0577 -24.5888C96.6453 -24.6433 98.0234 -25.8405 99.1203 -27.2488C100.217 -28.6562 102.182 -29.9844 103.489 -30.1986C104.795 -30.4137 103.906 -30.5379 101.511 -30.4758C99.1169 -30.4138 97.0797 -30.8637 96.9848 -31.4779C96.8058 -32.6371 91.6701 -32.5739 90.7571 -31.4018C90.4702 -31.0334 91.3433 -30.2377 92.6957 -29.6341C94.0491 -29.0297 94.6536 -28.3637 94.0383 -28.1543C92.6931 -27.6951 94.5341 -24.4451 96.0577 -24.5888ZM83.4212 -34.3485C82.8964 -35.2085 81.9793 -35.8668 81.3855 -35.8108C80.7919 -35.7547 81.2216 -35.0514 82.3411 -34.2466C83.5788 -33.3575 84.0026 -33.3975 83.4212 -34.3485ZM78.4849 -38.8212C75.95 -42.9693 78.246 -42.5052 84.4051 -37.622L89.7918 -33.3531L85.7171 -37.6792C83.0347 -40.5274 80.2531 -42.4082 77.5787 -43.1842L73.5149 -44.3632L75.6024 -41.0553C76.7498 -39.2356 78.2608 -37.3466 78.9589 -36.856C79.6578 -36.3663 79.444 -37.2511 78.4849 -38.8212ZM188.979 42.2993C189.875 41.0657 190.892 38.8707 191.237 37.4217L191.865 34.7878L190.206 36.6185L188.546 38.4491L189.175 35.8153C190.055 32.1238 190.781 31.2449 191.493 33.0157C191.828 33.8512 192.419 32.5752 192.805 30.1804C193.191 27.7846 194.116 25.6162 194.86 25.3632C195.605 25.1093 195.722 24.5182 195.122 24.0508C194.522 23.5833 194.286 22.8735 194.6 22.4729C194.914 22.0723 199.446 23.7753 204.671 26.2539C216.039 31.6479 218.775 32.2488 217.606 29.0938C217.165 27.9054 215.858 26.2331 214.7 25.3797C212.644 23.8609 212.628 23.8786 214.026 26.1294C215.351 28.2638 215.234 28.3352 212.439 27.1041C210.779 26.3736 208.251 24.8851 206.82 23.7962C204.722 22.1977 204.369 22.24 204.994 24.0135C205.549 25.5902 204.777 25.1417 202.262 22.4271C199.746 19.7099 198.719 19.1134 198.621 20.3141C198.546 21.2333 198.021 21.6241 197.454 21.1824C194.715 19.049 197.222 17.6787 202.066 18.6608C205.043 19.265 207.005 19.36 206.426 18.8698C205.846 18.3806 202.086 17.5738 198.07 17.0773C192.62 16.4038 190.847 16.6855 191.079 18.1908C191.25 19.3003 190.384 21.5676 189.154 23.228C187.233 25.8235 187.258 26.0742 189.33 25.0052C191.677 23.7959 191.716 23.8355 190.74 26.4769C190.19 27.9705 190.225 29.2577 190.818 29.3386C191.412 29.4186 190.896 30.7703 189.671 32.3419C187.766 34.7883 187.351 34.8473 186.789 32.7607C186.427 31.4188 186.064 33.2406 185.982 36.809C185.814 44.1243 186.602 45.5683 188.979 42.2993ZM134.152 -0.987593C136.218 -1.63107 137.169 -2.25746 136.263 -2.3791C134.533 -2.61301 129.214 -0.737817 129.96 -0.156291C130.198 0.029253 132.084 -0.344925 134.152 -0.987593ZM152.131 0.415539C152.885 -0.553488 154.663 5.38514 155.35 11.1728C156.111 17.5919 156.102 17.5791 153.98 9.20829C152.806 4.57522 151.972 0.618669 152.131 0.415539ZM149.884 7.55429C149.921 5.0068 149.72 2.74207 149.437 2.52119C149.153 2.3003 148.89 4.20358 148.853 6.75106C148.815 9.29855 149.016 11.5632 149.3 11.7841C149.583 12.005 149.846 10.1018 149.884 7.55429ZM112.419 -24.689C115.297 -29.2794 116.417 -30.1496 120.03 -30.604C125.976 -31.3541 126.765 -30.1526 122.747 -26.4659C119.77 -23.7356 119.701 -23.5175 122.247 -24.8815C123.871 -25.7507 125.57 -27.3618 126.023 -28.4599C126.573 -29.7941 127.187 -29.9159 127.873 -28.8253C128.438 -27.9277 128.407 -26.4245 127.804 -25.4832C127.2 -24.5419 128.339 -25.2879 130.336 -27.1387C133.13 -29.7311 135.181 -30.3874 139.245 -29.992C143.301 -29.5966 144.495 -29.0401 144.395 -27.5953C144.302 -26.2655 144.738 -26.2616 145.876 -27.5802C146.761 -28.6084 147.296 -28.72 147.06 -27.8289C146.403 -25.3273 148.353 -24.5144 149.986 -26.6109C151.101 -28.0435 153.043 -27.8215 158.208 -25.6721C161.927 -24.1247 165.223 -22.6617 165.531 -22.4215C165.839 -22.1813 164.474 -19.5563 162.496 -16.5871L158.9 -11.1896L162.96 -16.0086C166.896 -20.6818 167.099 -20.7504 169.597 -18.2864C172.111 -15.8067 172.124 -15.8116 170.179 -18.5015C168.502 -20.8206 168.685 -22.1023 171.328 -26.557L174.472 -31.8542L170.894 -27.5949L167.316 -23.3346L159.321 -26.6965C154.849 -28.5772 150.482 -31.1729 149.41 -32.5855C147.928 -34.5412 147.665 -34.61 148.247 -32.8872C148.859 -31.0755 148.515 -31.0296 146.397 -32.6398C144.274 -34.2549 143.932 -34.2083 144.54 -32.3826C145.019 -30.9411 144.756 -30.3031 143.801 -30.5866C142.985 -30.8284 139.995 -31.1523 137.155 -31.3058C134.315 -31.4601 131.555 -32.2794 131.021 -33.126C130.478 -33.9879 129.06 -34.0117 127.803 -33.1808C126.297 -32.185 124.627 -32.3831 122.737 -33.7816C120.495 -35.4404 120.19 -35.4269 121.247 -33.7149C122.516 -31.6599 122.423 -31.5538 119.224 -31.4114C117.381 -31.3293 114.872 -31.9328 113.649 -32.754C112.427 -33.5734 111.383 -33.7207 111.331 -33.0809C111.28 -32.4412 110.049 -32.8428 108.598 -33.9729C107.147 -35.1031 105.581 -35.5434 105.12 -34.9515C104.588 -34.2682 105.477 -33.3255 107.547 -32.3771C110.558 -30.998 110.592 -30.8329 107.99 -30.2505C105.668 -29.7316 105.878 -29.6217 109.157 -29.633C112.763 -29.6464 112.952 -29.5291 111.106 -28.4247C109.885 -27.6936 109.658 -27.122 110.544 -27.0021C111.36 -26.8917 111.418 -26.0048 110.673 -25.0313C109.929 -24.057 109.257 -22.3708 109.181 -21.2831C109.101 -20.1327 110.454 -21.5553 112.419 -24.689ZM120.613 -14.5939C121.445 -15.7647 121.38 -16.1854 120.448 -15.667C119.603 -15.1974 118.987 -14.3297 119.078 -13.7404C119.169 -13.151 119.859 -13.5349 120.613 -14.5939ZM107.207 -25.0357C108.039 -26.2065 107.974 -26.6272 107.042 -26.1088C106.197 -25.6392 105.581 -24.7715 105.672 -24.1821C105.763 -23.5928 106.453 -23.9767 107.207 -25.0357ZM87.2064 -39.2083C86.6817 -40.0683 85.7644 -40.7265 85.1707 -40.6705C84.577 -40.6144 85.0068 -39.9111 86.1263 -39.1063C87.364 -38.2172 87.7878 -38.2573 87.2064 -39.2083ZM128.327 -10.3545C129.676 -10.8357 131.318 -12.5674 131.975 -14.2026L133.171 -17.1755L130.394 -15.1674C128.866 -14.0633 127.224 -12.3315 126.744 -11.32C125.977 -9.69871 126.164 -9.58405 128.327 -10.3545ZM179.923 22.1629C184.718 16.0021 185.5 5.18159 180.906 8.56608C179.859 9.33751 180.018 9.43958 181.587 9.00337C184.872 8.09191 183.393 13.7129 179.287 17.7465C176.865 20.1263 175.984 21.8961 176.398 23.5491C176.906 25.5796 177.425 25.3748 179.923 22.1629ZM125.429 -18.6504C126.261 -19.8212 126.196 -20.2419 125.264 -19.7235C124.419 -19.2539 123.803 -18.3862 123.894 -17.7968C123.985 -17.2075 124.675 -17.5914 125.429 -18.6504ZM100.589 -36.5789C95.0315 -42.0628 93.9272 -43.8443 95.5167 -44.7597C96.6672 -45.4221 96.2836 -46.0847 94.0791 -47.2427C92.4245 -48.1114 90.7856 -48.4556 90.4373 -48.0085C89.5258 -46.8383 95.319 -39.6091 99.6801 -36.4761C103.19 -33.9563 103.241 -33.9619 100.589 -36.5789ZM102.372 -38.3366C101.57 -39.3542 99.9453 -40.62 98.7625 -41.1478C97.5804 -41.6765 98.2361 -40.8442 100.221 -39.298C102.206 -37.7518 103.174 -37.3199 102.372 -38.3366ZM172.31 7.45367C173.283 5.41945 174.231 1.2543 174.418 -1.80261C174.847 -8.84725 175.196 -9.22509 178.018 -5.71194C181.372 -1.53661 181.622 0.809044 179.093 4.33905L176.848 7.4748L179.906 5.17184C181.588 3.90548 182.651 3.38559 182.267 4.01708C181.882 4.64857 182.996 6.27787 184.742 7.63771C187.119 9.48912 187.675 9.57534 186.957 7.98429C185.482 4.71323 186.949 3.9832 190.996 5.97688C193.019 6.97292 194.61 7.37213 194.531 6.86443C194.452 6.35594 192.623 5.30746 190.465 4.53401C188.308 3.75958 186.583 2.62276 186.633 2.00572C186.684 1.3877 189.487 2.13271 192.862 3.65937C196.238 5.18604 198.94 6.04149 198.865 5.5614C198.791 5.08033 196.636 3.89859 194.075 2.93445C188.011 0.650209 187.744 -1.2734 193.725 0.403696C196.267 1.11747 197.62 1.106 196.729 0.377792C195.837 -0.34944 192.262 -1.12425 188.785 -1.34188C182.9 -1.71138 182.222 -2.04553 179.022 -6.14527C175.106 -11.1645 175.288 -12.4937 179.622 -10.5091C183.617 -8.67973 192.92 -7.28186 193.777 -8.38307C194.152 -8.86418 192.695 -10.5835 190.539 -12.2027C187.609 -14.4026 186.981 -14.564 188.052 -12.8397C189.302 -10.8253 188.936 -10.7296 185.148 -12.0876C179.5 -14.113 178.922 -14.6988 182.734 -14.5379C184.446 -14.4645 185.454 -14.7117 184.974 -15.0852C183.278 -16.4065 173.326 -16.1609 172.243 -14.7711C171.08 -13.2772 171.826 -5.58151 173.182 -5.07463C173.624 -4.9101 173.147 -3.69985 172.124 -2.38579C169.696 0.730256 169.398 0.341519 169.762 -5.46158C169.929 -8.1239 169.72 -9.2676 169.297 -8.00571C168.306 -5.05131 168.639 9.51636 169.718 10.4429C170.171 10.8333 171.337 9.48789 172.31 7.45367ZM108.788 -38.0657C107.402 -39.5028 104.849 -41.4915 103.116 -42.4834C101.384 -43.4753 102.518 -42.3 105.637 -39.8703C108.757 -37.4405 110.174 -36.6287 108.788 -38.0657ZM180.475 15.0769C181.075 14.3062 181.336 13.1037 181.055 12.4035C180.775 11.7032 180.105 12.195 179.569 13.4965C178.431 16.2567 178.908 17.0888 180.475 15.0769ZM177.445 11.3862C177.804 10.1258 177.647 9.1374 177.096 9.18938C176.546 9.24037 176.252 10.2714 176.443 11.4807C176.72 13.2268 176.925 13.2065 177.445 11.3862ZM169.532 2.42161C169.604 1.544 170.489 0.821228 171.499 0.817779C172.509 0.812549 172.884 0.925651 172.332 1.0687C171.782 1.21158 171.391 2.31833 171.463 3.52719C171.554 5.02873 171.248 5.45561 170.499 4.87167C169.896 4.40259 169.461 3.30002 169.532 2.42161ZM115.585 -39.5707C114.489 -41.3682 114.491 -42.7345 115.593 -43.3689C116.917 -44.1305 116.487 -45.0057 113.739 -47.1463C111.771 -48.6788 109.998 -49.7227 109.798 -49.4661C109.223 -48.7274 114.397 -38.8147 115.921 -37.7366C116.68 -37.2003 116.528 -38.0261 115.585 -39.5707ZM144.577 -20.0032C145.618 -21.3396 145.81 -22.0691 145.004 -21.6229C144.197 -21.1785 143.345 -20.085 143.111 -19.193C142.877 -18.3028 143.536 -18.6668 144.577 -20.0032ZM125.149 -34.608C124.65 -35.4308 123.489 -36.3344 122.571 -36.616C121.651 -36.8994 122.06 -36.2266 123.478 -35.1222C124.896 -34.0178 125.647 -33.7869 125.149 -34.608ZM119.993 -38.624C119.493 -39.4468 118.333 -40.3505 117.414 -40.6321C116.495 -40.9154 116.904 -40.2427 118.322 -39.1382C119.74 -38.0338 120.491 -37.803 119.993 -38.624ZM190.209 13.7839C190.026 12.5737 189.427 11.6271 188.877 11.6798C188.326 11.7318 188.475 12.7209 189.207 13.8784C190.267 15.5497 190.471 15.5313 190.209 13.7839ZM141.732 -24.6912C142.564 -25.8621 142.499 -26.2828 141.567 -25.7643C140.723 -25.2947 140.106 -24.427 140.197 -23.8376C140.288 -23.2483 140.978 -23.6322 141.732 -24.6912ZM126.422 -38.3698C125.325 -39.5955 123.238 -41.2212 121.781 -41.9843C120.324 -42.7464 121.221 -41.7431 123.773 -39.7552C126.325 -37.7672 127.518 -37.1432 126.422 -38.3698ZM134.675 -40.9892L133.179 -44.3862L135.587 -42.5665C136.92 -41.5585 138.048 -41.401 138.115 -42.2142C138.255 -43.9384 132.446 -48.7628 131.575 -47.6451C130.909 -46.7898 133.877 -39.2371 135.272 -38.2368C135.766 -37.8827 135.498 -39.1208 134.675 -40.9892ZM202.653 10.0028C209.506 11.548 209.975 9.90169 204.08 4.97918C199.633 1.26543 199.378 1.17961 201.848 4.23074C205.813 9.13009 205.555 9.85229 200.361 8.40534C197.841 7.70392 196.215 7.52594 196.749 8.01047C197.282 8.49501 199.939 9.39159 202.653 10.0028ZM142 -37.0985C141.501 -37.9213 140.341 -38.8249 139.422 -39.1066C138.503 -39.3899 138.912 -38.7171 140.329 -37.6127C141.747 -36.5083 142.499 -36.2775 142 -37.0985ZM145.081 -37.8638C144.28 -38.8814 142.655 -40.1473 141.472 -40.6751C140.29 -41.2038 140.946 -40.3715 142.931 -38.8253C144.916 -37.2791 145.883 -36.8472 145.081 -37.8638ZM176.675 -15.0856C177.275 -15.1414 179.239 -14.1488 181.04 -12.8788C182.934 -11.5428 183.533 -10.6754 182.461 -10.8201C180.268 -11.1166 175.087 -14.9358 176.675 -15.0856ZM180.338 -36.0457C188.681 -46.2856 192.429 -49.2147 194.991 -47.496C196.658 -46.3772 196.735 -46.0189 195.268 -46.2164C193.766 -46.4196 193.906 -44.9083 195.801 -40.4792C199.402 -32.0669 207.546 -17.5455 208.961 -17.018C210.903 -16.2926 209.21 -35.4741 206.904 -40.3264C205.727 -42.8016 202.773 -46.4068 200.337 -48.34L195.909 -51.8547L203.59 -60.3166C207.814 -64.9701 212.092 -69.3693 213.096 -70.0899C214.099 -70.8113 214.475 -71.7482 213.932 -72.1715C213.388 -72.5948 208.849 -68.3754 203.845 -62.7928L194.747 -52.6456L189.499 -53.783C181.283 -55.5652 159.404 -52.1951 159.863 -49.2199C159.958 -48.604 164.318 -47.154 169.55 -45.9971C176.51 -44.4583 180.146 -44.4033 183.092 -45.7952C185.307 -46.8417 187.382 -47.5102 187.701 -47.2801C188.022 -47.051 185.939 -44.2395 183.075 -41.0317C180.21 -37.8257 177.44 -34.1865 176.918 -32.9441C176.398 -31.7018 177.936 -33.0987 180.338 -36.0457ZM175.779 -48.0841C180.454 -48.2685 183.82 -48.7779 183.258 -49.2157C182.697 -49.6526 178.213 -49.8986 173.295 -49.7624C168.377 -49.6252 164.299 -49.8627 164.234 -50.2897C164.168 -50.7158 168.422 -51.7232 173.686 -52.5278C186.199 -54.4388 197.505 -52.3619 188.362 -49.8324C186.379 -49.2833 184.254 -48.2084 183.64 -47.4435C182.592 -46.1362 169.365 -45.9012 167.937 -47.1649C167.574 -47.4847 171.103 -47.8986 175.779 -48.0841ZM203.704 -29.4641C202.072 -29.6847 195.685 -41.5849 195.885 -44.0351C196.102 -46.6977 197.728 -44.299 200.44 -37.3147C201.898 -33.5585 203.463 -30.5202 203.919 -30.5632C204.693 -30.6363 202.066 -37.271 197.667 -46.3483L195.761 -50.2829L199.727 -47.2567C204.673 -43.482 206.166 -40.5016 207.791 -31.1609C209.211 -22.9966 208.569 -20.2327 206.528 -25.7233C205.805 -27.6686 204.534 -29.3515 203.704 -29.4641Z" fill="#1ABC00" fill-opacity="0.43"/>
</svg>
