<svg width="28" height="20" viewBox="0 0 28 20" fill="none" xmlns="http://www.w3.org/2000/svg">
<path d="M25.9993 8.00027H6.81245L11.4141 3.4248C11.7908 3.04856 12.0025 2.53828 12.0025 2.0062C12.0025 1.47412 11.7908 0.963837 11.4141 0.587601C11.0374 0.211366 10.5264 0 9.99359 0C9.46079 0 8.94982 0.211366 8.57308 0.587601L0.57023 8.5797C0.388084 8.76972 0.245303 8.99378 0.15008 9.23905C-0.0500268 9.72549 -0.0500268 10.2711 0.15008 10.7575C0.245303 11.0028 0.388084 11.2269 0.57023 11.4169L8.57308 19.409C8.75907 19.5963 8.98035 19.7449 9.22416 19.8463C9.46797 19.9478 9.72947 20 9.99359 20C10.2577 20 10.5192 19.9478 10.763 19.8463C11.0068 19.7449 11.2281 19.5963 11.4141 19.409C11.6016 19.2232 11.7505 19.0023 11.852 18.7588C11.9536 18.5153 12.0059 18.2542 12.0059 17.9904C12.0059 17.7266 11.9536 17.4655 11.852 17.222C11.7505 16.9785 11.6016 16.7575 11.4141 16.5718L6.81245 11.9963H25.9993C26.5299 11.9963 27.0388 11.7858 27.414 11.4111C27.7892 11.0364 28 10.5282 28 9.99829C28 9.46839 27.7892 8.96018 27.414 8.58548C27.0388 8.21078 26.5299 8.00027 25.9993 8.00027Z" fill="white"/>
</svg>
